<svg width="336" height="44" viewBox="0 0 336 44" fill="none" xmlns="http://www.w3.org/2000/svg">
<rect x="0.5" width="335" height="44" rx="8" fill="#1DC800"/>
<path d="M134.783 29.106H133.229V16.632H134.783V29.106ZM130.681 21.868H128.217V20.552H130.681V16.856H132.221V28.532H130.681V21.868ZM129.813 24.388L130.009 25.69C129.691 25.7927 129.108 25.886 128.259 25.97C127.409 26.0447 126.607 26.082 125.851 26.082H124.731V17.724H126.341V24.724C127.89 24.724 129.047 24.612 129.813 24.388ZM146.602 29.106H144.978V16.632H146.602V29.106ZM137.502 25.172C136.933 24.36 136.648 23.2867 136.648 21.952C136.648 20.6173 136.933 19.5393 137.502 18.718C138.081 17.8967 138.869 17.486 139.868 17.486C140.876 17.486 141.665 17.8967 142.234 18.718C142.813 19.5393 143.102 20.6173 143.102 21.952C143.102 23.2773 142.813 24.3507 142.234 25.172C141.665 25.984 140.876 26.39 139.868 26.39C138.869 26.39 138.081 25.984 137.502 25.172ZM141.534 21.952C141.534 20.9813 141.38 20.216 141.072 19.656C140.764 19.0867 140.363 18.802 139.868 18.802C139.392 18.802 139 19.0867 138.692 19.656C138.393 20.216 138.244 20.9813 138.244 21.952C138.244 22.9133 138.393 23.674 138.692 24.234C139 24.794 139.392 25.074 139.868 25.074C140.363 25.074 140.764 24.794 141.072 24.234C141.38 23.674 141.534 22.9133 141.534 21.952ZM158.715 29.106H157.091V22.386H155.187V21.014H157.091V16.632H158.715V29.106ZM154.655 26.026H148.761V17.64H150.371V20.636H153.017V17.612H154.655V26.026ZM153.017 24.738V21.924H150.371V24.738H153.017ZM170.73 24.304H166.95V26.25H171.794V27.552H160.524V26.25H165.312V24.304H161.966V20.174H168.742V18.732H161.896V17.43H170.366V21.476H163.59V22.988H170.73V24.304ZM186.522 24.304H182.742V26.25H187.586V27.552H176.316V26.25H181.104V24.304H177.758V20.174H184.534V18.732H177.688V17.43H186.158V21.476H179.382V22.988H186.522V24.304ZM199.699 27.342H188.429V26.054H199.699V27.342ZM198.271 17.906C198.271 20.818 198.079 23.2867 197.697 25.312L196.101 25.158C196.25 24.514 196.376 23.6087 196.479 22.442C196.591 21.2753 196.642 20.1927 196.633 19.194H189.717V17.906H198.271ZM210.846 25.676H209.222V16.632H210.846V25.676ZM211.126 28.77H202.474V24.78H204.126V27.482H211.126V28.77ZM200.934 20.636C200.934 19.74 201.242 19.0027 201.858 18.424C202.483 17.8453 203.3 17.556 204.308 17.556C205.325 17.556 206.142 17.8453 206.758 18.424C207.374 19.0027 207.682 19.74 207.682 20.636C207.682 21.5413 207.374 22.2787 206.758 22.848C206.142 23.4173 205.325 23.702 204.308 23.702C203.291 23.702 202.474 23.4173 201.858 22.848C201.242 22.2787 200.934 21.5413 200.934 20.636ZM202.614 20.636C202.614 21.14 202.768 21.5553 203.076 21.882C203.384 22.1993 203.795 22.358 204.308 22.358C204.84 22.358 205.255 22.1993 205.554 21.882C205.862 21.5553 206.016 21.14 206.016 20.636C206.016 20.1507 205.862 19.7493 205.554 19.432C205.246 19.1147 204.831 18.956 204.308 18.956C203.795 18.956 203.384 19.1147 203.076 19.432C202.768 19.7493 202.614 20.1507 202.614 20.636Z" fill="white"/>
<path d="M33.7181 20.49L26.655 13H20.8032V27H26.9382V19.51L33.9855 27H39.8373V13H33.7181V20.49Z" fill="white"/>
</svg>
