<svg width="336" height="45" viewBox="0 0 336 45" fill="none" xmlns="http://www.w3.org/2000/svg">
<rect x="0.208008" y="0.427734" width="335" height="44" rx="8" fill="#1DC800"/>
<path d="M134.491 29.5337H132.937V17.0597H134.491V29.5337ZM130.389 22.2957H127.925V20.9797H130.389V17.2837H131.929V28.9597H130.389V22.2957ZM129.521 24.8157L129.717 26.1177C129.399 26.2204 128.816 26.3137 127.967 26.3977C127.117 26.4724 126.315 26.5097 125.559 26.5097H124.439V18.1517H126.049V25.1517C127.598 25.1517 128.755 25.0397 129.521 24.8157ZM146.31 29.5337H144.686V17.0597H146.31V29.5337ZM137.21 25.5997C136.641 24.7877 136.356 23.7144 136.356 22.3797C136.356 21.0451 136.641 19.9671 137.21 19.1457C137.789 18.3244 138.577 17.9137 139.576 17.9137C140.584 17.9137 141.373 18.3244 141.942 19.1457C142.521 19.9671 142.81 21.0451 142.81 22.3797C142.81 23.7051 142.521 24.7784 141.942 25.5997C141.373 26.4117 140.584 26.8177 139.576 26.8177C138.577 26.8177 137.789 26.4117 137.21 25.5997ZM141.242 22.3797C141.242 21.4091 141.088 20.6437 140.78 20.0837C140.472 19.5144 140.071 19.2297 139.576 19.2297C139.1 19.2297 138.708 19.5144 138.4 20.0837C138.101 20.6437 137.952 21.4091 137.952 22.3797C137.952 23.3411 138.101 24.1017 138.4 24.6617C138.708 25.2217 139.1 25.5017 139.576 25.5017C140.071 25.5017 140.472 25.2217 140.78 24.6617C141.088 24.1017 141.242 23.3411 141.242 22.3797ZM158.423 29.5337H156.799V22.8137H154.895V21.4417H156.799V17.0597H158.423V29.5337ZM154.363 26.4537H148.469V18.0677H150.079V21.0637H152.725V18.0397H154.363V26.4537ZM152.725 25.1657V22.3517H150.079V25.1657H152.725ZM170.439 24.7317H166.659V26.6777H171.503V27.9797H160.233V26.6777H165.021V24.7317H161.675V20.6017H168.451V19.1597H161.605V17.8577H170.075V21.9037H163.299V23.4157H170.439V24.7317ZM186.23 24.7317H182.45V26.6777H187.294V27.9797H176.024V26.6777H180.812V24.7317H177.466V20.6017H184.242V19.1597H177.396V17.8577H185.866V21.9037H179.09V23.4157H186.23V24.7317ZM199.407 27.7697H188.137V26.4817H199.407V27.7697ZM197.979 18.3337C197.979 21.2457 197.787 23.7144 197.405 25.7397L195.809 25.5857C195.958 24.9417 196.084 24.0364 196.187 22.8697C196.299 21.7031 196.35 20.6204 196.341 19.6217H189.425V18.3337H197.979ZM210.554 26.1037H208.93V17.0597H210.554V26.1037ZM210.834 29.1977H202.182V25.2077H203.834V27.9097H210.834V29.1977ZM200.642 21.0637C200.642 20.1677 200.95 19.4304 201.566 18.8517C202.191 18.2731 203.008 17.9837 204.016 17.9837C205.033 17.9837 205.85 18.2731 206.466 18.8517C207.082 19.4304 207.39 20.1677 207.39 21.0637C207.39 21.9691 207.082 22.7064 206.466 23.2757C205.85 23.8451 205.033 24.1297 204.016 24.1297C202.999 24.1297 202.182 23.8451 201.566 23.2757C200.95 22.7064 200.642 21.9691 200.642 21.0637ZM202.322 21.0637C202.322 21.5677 202.476 21.9831 202.784 22.3097C203.092 22.6271 203.503 22.7857 204.016 22.7857C204.548 22.7857 204.963 22.6271 205.262 22.3097C205.57 21.9831 205.724 21.5677 205.724 21.0637C205.724 20.5784 205.57 20.1771 205.262 19.8597C204.954 19.5424 204.539 19.3837 204.016 19.3837C203.503 19.3837 203.092 19.5424 202.784 19.8597C202.476 20.1771 202.322 20.5784 202.322 21.0637Z" fill="white"/>
<path d="M33.4259 20.9177L26.3628 13.4277H20.511V27.4277H26.6459V19.9377L33.6933 27.4277H39.5451V13.4277H33.4259V20.9177Z" fill="white"/>
</svg>
